<svg width="41" height="28" viewBox="0 0 41 28" fill="none" xmlns="http://www.w3.org/2000/svg">
<path d="M18.6289 0.0439453C18.7072 1.39908 18.6393 3.6323 18.1807 5.93066C17.7222 8.22785 16.8723 10.597 15.3828 12.2188L15.3555 12.2471C18.7281 9.44665 23.0239 6.04174 22.5723 0.046875H32.1348C32.498 2.29381 32.2889 7.3216 29.1836 11.5967C31.0421 9.82926 32.7619 8.28107 33.623 7.41992L33.6553 7.38867L33.6885 7.41895C34.6272 8.28263 38.6119 12.2486 40.4863 14.123L40.5215 14.1582L40.4854 14.1914L36.876 17.4727L36.8721 17.4756C36.1251 18.0203 34.2354 19.5965 32.6641 21.541C32.2637 22.3878 31.9776 22.7775 31.7686 23.5498C31.5593 24.3232 31.4297 25.4781 31.3594 27.8447L31.3584 27.8906H21.8936L21.8916 27.8467C21.8133 26.4915 21.8812 24.2584 22.3398 21.96C22.7674 19.8174 23.5357 17.6127 24.8457 16.0098C20.4722 19.9812 17.9723 22.1076 18.4473 27.6094H8.79102C8.71673 24.9596 9.27416 19.6869 11.6914 15.9512C9.69877 17.8588 7.81361 19.5546 6.89746 20.4707L6.86523 20.502L6.83203 20.4717C5.89333 19.608 1.90876 15.6422 0.0341797 13.7676L0 13.7334L0.0341797 13.7002H0.0351562L0.0429688 13.6924C0.0483273 13.6873 0.0563278 13.6795 0.0664062 13.6699C0.0875438 13.6498 0.119499 13.6198 0.15918 13.582C0.238829 13.5062 0.353441 13.3969 0.493164 13.2646C0.772988 12.9997 1.15429 12.6406 1.55859 12.2646C2.36606 11.5137 3.2706 10.6906 3.64844 10.415C3.83312 10.2803 4.18913 9.95905 4.62012 9.55078C5.05027 9.14329 5.55407 8.65102 6.03418 8.17578C6.51428 7.70055 6.97086 7.24178 7.30762 6.90234C7.47579 6.73283 7.61471 6.59266 7.71094 6.49512C7.7589 6.44649 7.79673 6.40778 7.82227 6.38184L7.86035 6.34375C7.86234 6.34088 7.86522 6.33591 7.86914 6.33008C7.87738 6.31779 7.88956 6.29815 7.90527 6.27246C7.93686 6.22082 7.98282 6.14139 8.03809 6.03125C8.14895 5.81023 8.29963 5.46518 8.4541 4.97266C8.76317 3.98709 9.09091 2.40905 9.16113 0.0458984L9.16211 0H18.627L18.6289 0.0439453Z" fill="#8B49FF"/>
</svg>
